<svg xmlns="http://www.w3.org/2000/svg" viewBox="0 0 154.25 63.07"><g id="Calque_2" data-name="Calque 2"><g id="Calque_1-2" data-name="Calque 1"><path d="M34.55,18.45c-1.59,1.4-3.66,3.18-6.19,5.34s-5.25,4.38-8.18,6.66-5.72,4.33-8.46,6.14A34,34,0,0,1,4.6,40.36c-2,.7-3.36.56-4.08-.45a5.76,5.76,0,0,1-.26-4.24,24.47,24.47,0,0,1,2.39-6.05,38.85,38.85,0,0,1,4.27-6.3c5-5.91,11.67-9.89,16.71-4.9.37.38.09.85-.31,1.13s-2.34-.73-1.9-1.25A6.25,6.25,0,0,0,15.66,18a17.53,17.53,0,0,0-5.91,4.14,36.81,36.81,0,0,0-5,6.4A29.54,29.54,0,0,0,1.67,35C1,37,1,38.41,1.5,39.33,2,40,3.17,40,4.92,39.16a41.25,41.25,0,0,0,6.38-3.79c2.51-1.74,5.09-3.66,7.76-5.79s5.2-4.15,7.52-6.1,4.24-3.58,5.72-4.85c.3-.25.56-.49.82-.7,1.15-1,.63-.94-.77-.56l-.66.14-1.64.4c-.94.21-1.81.44-3.05.72-.23,1-3.35-.61.14-1.38,2.68-.66,5.35-1.27,8-1.85l.33-.07a2.89,2.89,0,0,0,1.69-.85l0,0,2.23-1.88a133.44,133.44,0,0,1,12-9.35c1.15-.75,5.72-2.76,4.74-.51a38.39,38.39,0,0,1-2.11,3.68c-1,1.61-2,3-2.79,4.28-.4.64-.68,1.06-.84,1.32a1.63,1.63,0,0,1-.14.18c-.17.19-.19.29.09.26,1.17-.21,5.13-.72,6.19-.23.68.42.33.91-.31.63s-5,.45-6.16.66a.34.34,0,0,1-.14,0,1.14,1.14,0,0,0-1,.77.47.47,0,0,0-.12.19L45.21,20.3Q40,28.39,35.11,36.63a2.08,2.08,0,0,0-.16.64c0,.35-.07.61-.45.72s-1.12-.42-.33-2.13q5.8-10,12.1-19.62c.35-.56.72-1.12,1.08-1.69s.25-.58-.31-.46c-2.88.58-5.76,1.19-8.62,1.87l-.92.21a1.68,1.68,0,0,0-.93.54s0,0,0,0Zm5-4c.25-.05.53-.09.82-.16,2.41-.54,4.85-1,7.31-1.43.77-.1.94-.26,1.22-.8.07-.12.14-.23.23-.4.26-.37.61-.94,1.1-1.66l2.18-3.38c.78-1.19,1.41-2.18,1.85-2.93.45-.93-1.38,0-2.18.59A121.54,121.54,0,0,0,40.78,13.1l-1.14,1C39.31,14.39,39.28,14.53,39.57,14.46Z"/><path d="M51.21,18.05a1.68,1.68,0,0,1,.68-1.6c.5-.3,1.06-.21,1.74.31a2.31,2.31,0,0,1,.26,2.51c-.19.37-.17.53.23.72a5.49,5.49,0,0,1,2.55,1.9c.47.73.26,1.66-.63,2.84A12.26,12.26,0,0,0,54.71,27a3.38,3.38,0,0,0-.4,2.32c.47,1.4,4.66-1,6.65-2.44.66-.56.94-.09.52.33a13.53,13.53,0,0,1-5.6,3.3c-1.67.38-2.65,0-3-1s.45-2.89,2.34-5.39c.54-.73.61-1.34.24-1.78a5.62,5.62,0,0,0-1.71-1.34s-.05,0-.07-.05a.53.53,0,0,0-.42-.11c-.21,0-.68.75-.87,1-.77,1-1.24.35-1.15-.14.05-.17.12-.24.23-.26s.33-.21.68-.61.1-.77-.21-1.13A3.18,3.18,0,0,1,51.21,18.05Zm1.06-.12c0,.21.42,1.12.7,1.12.07,0,.07-.09.07-.18a1.33,1.33,0,0,0,.05-.19C53.28,17.55,52.22,16.41,52.27,17.93Z"/><path d="M63.33,22.8l.16-.23c-.37-.7,1.55-2.09,2-1.43.21.35,0,.66-.18.94a.42.42,0,0,0-.1.12C64.6,23,63.94,24,63.24,25a26.37,26.37,0,0,0-1.55,2.6c-.26.61-.09.94.49,1a6.48,6.48,0,0,0,2.35-.28c1-.26,1.85-.52,2.64-.8s1.29-.49,1.46-.58c.49-.28.82.23.21.65a18.89,18.89,0,0,1-4,1.55,14.31,14.31,0,0,1-3.49.7C58.32,29.88,62.3,24.21,63.33,22.8ZM65.18,20c-.09-.26.31-.42.54-.56s.19-.07.19-.1a.6.6,0,0,1,.68-.56C68.35,18.84,65.65,21.09,65.18,20Z"/><path d="M75.47,23.09a3.92,3.92,0,0,1-1.36,1.75,8.22,8.22,0,0,1-2.29,1.39c-.78.3-1.36.28-1.72-.05a13.92,13.92,0,0,0-.86,1.24,3.22,3.22,0,0,0-.54,1.34c0,.58.4.84,1.22.77a10.65,10.65,0,0,0,2.9-.77c1.13-.45,2.16-.89,3.1-1.34s1.52-.8,1.78-1c.54-.35,1.31-.12.12.75a27.71,27.71,0,0,1-5.93,2.95,6.54,6.54,0,0,1-3.19.45c-.87-.14-1.29-.77-1.27-1.92A5.76,5.76,0,0,1,68.74,26a14.08,14.08,0,0,1,2.77-2.79A4.76,4.76,0,0,1,74.42,22C75.28,22.15,75.64,22.52,75.47,23.09Zm-4.4,2.53a10,10,0,0,0,1.66-.89,10.51,10.51,0,0,0,1.5-1.2c.3-.35.3-.44-.28-.28S69.35,26.18,71.07,25.62Z"/><path d="M106.55,9.49c-2.7.26-5.13.52-7.31.82a.31.31,0,0,0-.17,0c-2,.23-2.06.28-2.86,1.54-.11.21-.28.45-.46.73-1.39,2-2.93,4.1-4.69,6.33-2.28,2.88-4.29,5.65-6,8.29-.19.31-.54.85-1.06,1.67-1,1.62-2.41,3.77-4.08,6.42s-3.25,5.27-4.75,7.83a49.14,49.14,0,0,0-3,5.83c-.09.24-.19.45-.26.66-.37,1.13-.61,1.62-1,1.06-.23-.45.22-1.81,1.34-4s2.58-4.89,4.43-8,3.75-6.3,5.72-9.49a.63.63,0,0,1,.12-.18c.91-1.43.89-1.5-.52-.36l-.35.29c-1.78,1.52-3.47,2.81-5,2.78a1.29,1.29,0,0,1-1.17-.54q-.36-.48.09-1.35c.8-1.34,1.31-2.18,1.57-2.54.89-1.43,2-3.23,3.28-5.39,1.43-2.36,2.93-4.85,4.53-7.47.09-.17.18-.31.25-.42.66-1,.68-1.15-.44-.8-.14,0-.28.07-.4.09-2.77.73-5.06,1.38-6.91,2l-.57.21c-.44.17-.79.31-.89.52v.14c0,.19,0,.51-.72.7-.57.07-3.73-1,1.73-2.86,2.18-.7,4.92-1.45,8.25-2.22,1.57-.33,1.67-.5,2.44-1.79.12-.16.23-.37.37-.58C89.39,7,90.64,5.06,91.69,3.45a22.69,22.69,0,0,1,2.2-3c.89-.56,1.48-.56,1.74,0a3.15,3.15,0,0,1-.26,2.49,1.45,1.45,0,0,0-.14.28,29.07,29.07,0,0,1-3.63,6.3l-.26.33c-.63.73-.54.73.77.52a7.55,7.55,0,0,1,.78-.14c.14,0,.28,0,.39,0C94.5,10,94.53,10,95,9.14c.12-.19.28-.42.47-.7.7-1,1.26-1.78,1.66-2.32.7-.45,1.2-.47,1.45,0s.24,1-.14,1.79c-.21.44-.37.79-.51,1-.38.63-.35.68.75.51l.37,0h.19c2.23-.26,4.69-.52,7.41-.76a37.43,37.43,0,0,1,6.26-.14c.75.1.86.9-.15.8A37.54,37.54,0,0,0,106.55,9.49ZM93.24,11.88c.47-.63.54-.77-.31-.61-.54.1-.75.14-1.19.24a2.72,2.72,0,0,0-.4.09c-1.22.19-1.22.26-2,1.36,0,.07-.09.16-.16.26-1.88,2.88-3.77,5.62-5.7,8.23a42.19,42.19,0,0,1-4.85,5.71A14.1,14.1,0,0,0,77,29.53c-2.11,3.49,7.43-4,8.6-5.74q2.43-3.94,3.87-6.17c1-1.5,1.76-2.71,2.37-3.63.28-.42.54-.84.79-1.24S93.07,12.09,93.24,11.88ZM81.57,21.4c-1.2,1.94-1.69,2.88-1.53,2.81A22.13,22.13,0,0,0,83,20.53c1.43-2,3-4.36,4.59-6.94.07-.09.12-.18.19-.28.37-.56.73-1.1.21-1A3.09,3.09,0,0,0,86.3,14a3.46,3.46,0,0,1-.31.47C84.24,17.16,82.76,19.45,81.57,21.4Zm7.31-11.32c-.38.54-.61.94-.14.84s.58-.12,1-.82c1.58-2.53,2.72-4.43,3.45-5.72C95.07,1,92.44,4.71,89,9.8A2.79,2.79,0,0,1,88.88,10.08Z"/><path d="M97.81,23.09a4,4,0,0,1-1.36,1.75,8.27,8.27,0,0,1-2.3,1.39c-.77.3-1.36.28-1.71-.05a12,12,0,0,0-.87,1.24A3.52,3.52,0,0,0,91,28.76c0,.58.4.84,1.22.77a10.8,10.8,0,0,0,2.91-.77c1.12-.45,2.16-.89,3.09-1.34s1.53-.8,1.78-1c.54-.35,1.32-.12.12.75a26.26,26.26,0,0,1-2.39,1.41,27,27,0,0,1-3.54,1.54,6.53,6.53,0,0,1-3.19.45c-.86-.14-1.29-.77-1.26-1.92A5.67,5.67,0,0,1,91.08,26a13.82,13.82,0,0,1,2.77-2.79,4.74,4.74,0,0,1,2.9-1.2C97.62,22.15,98,22.52,97.81,23.09ZM93.4,25.62a9.68,9.68,0,0,0,1.67-.89,11.8,11.8,0,0,0,1.5-1.2c.3-.35.3-.44-.29-.28S91.69,26.18,93.4,25.62Z"/><path d="M111.78,15.21a5.24,5.24,0,0,1,1.75-3.54,23.51,23.51,0,0,1,4-3.33,33.32,33.32,0,0,1,3.66-2.13A51.69,51.69,0,0,1,132.5,2.46a42.47,42.47,0,0,1,11.13-.94A15.4,15.4,0,0,1,151.78,4c2,1.43,2.77,3.54,2.37,6.38S151.71,16.8,148,21.21a60.4,60.4,0,0,1-16.24,13,61,61,0,0,1-19.55,7.12c-1.13.19-5.42.91-6.1-.21-.37-.75.22-1.17.94-.7a6.89,6.89,0,0,0,3,0c1.33-.21,2.48-.42,3.44-.63l.36-.07A61.7,61.7,0,0,0,132,32.55a59.33,59.33,0,0,0,15-12.18c3.56-4.25,5.5-7.64,5.83-10.22s-.47-4.45-2.43-5.63A15.46,15.46,0,0,0,142.5,2.7,44.78,44.78,0,0,0,132,3.89a51.23,51.23,0,0,0-10.29,3.49,31.86,31.86,0,0,0-2.91,1.67,25.6,25.6,0,0,0-3.63,2.74,5.84,5.84,0,0,0-2,3c-.18,1,.5,1.81,2.07,2.46.53.28.46,1-.31.78C112.85,17.3,111.8,16.36,111.78,15.21Zm10.5,6.73c2.22-3.49,4.19-6.52,5.93-9,.35-.49.63-.91.89-1.31.7-1,.33-1.17,0-1.31s-.42-.19,0-.68c.59-.64,3.33-3.5,4.06-3,.53.4-.29,1.52-.75,2.23a2.91,2.91,0,0,1-.24.32c-.89,1.39-2.11,3.22-3.66,5.44q-3,4.37-6,8.93a38.32,38.32,0,0,0-3.91,7.24c-.24.92-1.08.5-.85-.3A49.1,49.1,0,0,1,122.28,21.94Z"/><path d="M42,57.62v3.25h-.53V51.5h2.47a3.06,3.06,0,0,1,1.82.89,3.07,3.07,0,0,1-2.16,5.23ZM42,52v5.06h1.6a2.41,2.41,0,0,0,1.78-.75A2.53,2.53,0,0,0,43.57,52Z"/><path d="M47.83,51.5h.52v3.92A2.28,2.28,0,0,1,52.27,57v3.85h-.52v-3.8a1.69,1.69,0,0,0-.53-1.25,1.8,1.8,0,0,0-2.52,0,1.89,1.89,0,0,0-.35.48v4.58h-.52Z"/><path d="M56.9,54.6a3.06,3.06,0,0,1,2.27.94,3.22,3.22,0,1,1-2.27-.94ZM55,55.94a2.66,2.66,0,1,0,4.55,1.88A2.67,2.67,0,0,0,55,55.94Z"/><path d="M62.34,55.12V52.67h.53v2.45H64v.52H62.87v5.23h-.53V55.64H61.17v-.52Z"/><path d="M68.31,54.6a3.1,3.1,0,0,1,2.28.94A3.23,3.23,0,0,1,68.31,61a3.22,3.22,0,0,1,0-6.44Zm-1.88,1.34a2.66,2.66,0,0,0,0,3.76,2.68,2.68,0,0,0,3.76,0,2.66,2.66,0,1,0-3.76-3.76Z"/><path d="M78.6,59.73c-.1.12-.2.24-.32.36a3.2,3.2,0,0,1-4.55,0,3.22,3.22,0,0,1,0-4.55A3.14,3.14,0,0,1,76,54.6a3.1,3.1,0,0,1,2.28.94,4.32,4.32,0,0,1,.34.39v-.81h.52v4.47a3,3,0,0,1-.92,2.21,3.2,3.2,0,0,1-4.55,0,3.14,3.14,0,0,1-.34-.4l.55-.2a1.8,1.8,0,0,0,.19.2,2.66,2.66,0,0,0,3.76,0A2.53,2.53,0,0,0,78.6,59.73Zm0-2.46a2.48,2.48,0,0,0-.73-1.33,2.63,2.63,0,1,0,.73,2.44Z"/><path d="M80.93,55.12h.52v1.05a4,4,0,0,1,.38-.46A2.25,2.25,0,0,1,83.26,55v.58a1.62,1.62,0,0,0-1,.55,2.56,2.56,0,0,0-.78,1.79v3h-.52Z"/><path d="M90.65,60.87h-.53V59.7a2.5,2.5,0,0,1-.34.39,3.07,3.07,0,0,1-2.27.95,3.11,3.11,0,0,1-2.28-.95,3.22,3.22,0,0,1,4.55-4.55,2.5,2.5,0,0,1,.34.39v-.81h.53Zm-.53-2.53v-1a2.67,2.67,0,1,0-4.5,2.4,2.6,2.6,0,0,0,1.89.77,2.67,2.67,0,0,0,2.61-2.13Z"/><path d="M92.52,55.12h.53v.81a3.22,3.22,0,1,1,.33,4.16,3.9,3.9,0,0,1-.33-.38v3.36h-.53Zm.53,2.15v1.1a2.66,2.66,0,1,0,.72-2.43A2.53,2.53,0,0,0,93.05,57.27Z"/><path d="M100.34,51.5h.52v3.92a2.28,2.28,0,0,1,3.92,1.6v3.85h-.52v-3.8a1.69,1.69,0,0,0-.53-1.25,1.79,1.79,0,0,0-2.51,0,1.72,1.72,0,0,0-.36.48v4.58h-.52Z"/><path d="M107.64,59.79a2.49,2.49,0,0,0,1.77.68,2.57,2.57,0,0,0,1.88-.78l.19-.2.55.2a3.22,3.22,0,1,1-4.9-4.15,3.26,3.26,0,0,1,4.28-.26l.28.26.1.1-.4.4Zm3.36-4.1a2.5,2.5,0,0,0-1.59-.53,2.6,2.6,0,0,0-1.88.77,2.67,2.67,0,0,0-.25,3.48Z"/></g></g></svg>